<?xml version="1.0" ?><svg height="48px" version="1.1" viewBox="0 0 48 48" width="48px" xmlns="http://www.w3.org/2000/svg" xmlns:xlink="http://www.w3.org/1999/xlink"><title/><g fill="none" fill-rule="evenodd" id="rotating-arrow" stroke="none" stroke-width="1"><path d="M9.68151224,28.5296488 L9.543,28.219 L13.8193952,28.2379095 C14.2174049,28.2401871 14.4584027,27.7991295 14.2414885,27.4654153 L7.74148852,17.4654153 C7.5443168,17.1620742 7.10021662,17.1620742 6.9030449,17.4654153 L0.403044901,27.4654153 C0.186487165,27.7985811 0.426330435,28.2390393 0.82369096,28.2379095 L2.30138047,28.2347007 L5.277,28.239 L5.36515366,28.5138833 C8.31864517,37.510227 18.142023,42.6905817 27.3827653,40.0408415 C31.6136803,38.8276461 34.6870486,36.3688206 36.7078082,33.695005 L36.8607226,33.4880018 L37.0271896,33.2510199 C37.1823554,33.0338483 37.1395873,32.7330936 36.9300321,32.5677863 L34.6720915,30.7594804 C34.6421182,30.7360024 34.6134436,30.7136252 34.5859094,30.6922248 C34.3695908,30.5240942 34.058254,30.5613614 33.8877287,30.7757974 L33.5044656,31.2790074 C33.3124807,31.5300967 33.134983,31.7517412 32.9383453,31.9815973 C32.4020651,32.6084724 31.808818,33.1927034 31.1160891,33.7434563 C29.7734328,34.8109328 28.1803041,35.6509531 26.2802159,36.1957947 C19.9021697,38.02467 12.7332002,35.1534098 9.68151224,28.5296488 Z" fill="#000000" fill-rule="nonzero" id="Path" transform="translate(18.720910, 28.986048) rotate(16.000000) translate(-18.720910, -28.986048) "/><path d="M20.2661526,18.5296488 L20.127,18.219 L24.4040356,18.2379095 C24.8020453,18.2401871 25.0430431,17.7991295 24.8261289,17.4654153 L18.3261289,7.46541531 C18.1289572,7.16207421 17.684857,7.16207421 17.4876853,7.46541531 L10.9876853,17.4654153 C10.7711276,17.7985811 11.0109708,18.2390393 11.4083314,18.2379095 L12.8860209,18.2347007 L15.862,18.239 L15.9497941,18.5138833 C18.9032856,27.510227 28.7266634,32.6905817 37.9674057,30.0408415 C40.2238077,29.3938286 42.2244938,28.3423585 43.9743835,26.9984154 C45.0155786,26.198761 45.907197,25.3425958 46.6551916,24.4797203 C46.8548195,24.2494325 47.0342936,24.0299242 47.1950075,23.8223941 L47.4240975,23.516877 L47.61183,23.2510199 C47.7669958,23.0338483 47.7242277,22.7330936 47.5146725,22.5677863 L45.1705498,20.6922248 C44.9542312,20.5240942 44.6428944,20.5613614 44.4723691,20.7757974 L44.089106,21.2790074 C43.8971211,21.5300967 43.7196234,21.7517412 43.5229857,21.9815973 C42.9867055,22.6084724 42.3934584,23.1927034 41.7007295,23.7434563 C40.3580732,24.8109328 38.7649445,25.6509531 36.8648563,26.1957947 C30.4868101,28.02467 23.3178406,25.1534098 20.2661526,18.5296488 Z" fill="#000000" fill-rule="nonzero" id="Path" transform="translate(29.305551, 18.986048) scale(-1, -1) rotate(16.000000) translate(-29.305551, -18.986048) "/></g></svg>